<svg xmlns="http://www.w3.org/2000/svg" xmlns:xlink="http://www.w3.org/1999/xlink" version="1.1" x="0px" y="0px" viewBox="0 0 100 125" enable-background="new 0 0 100 100" xml:space="preserve"><g><path fill="#000000" d="M62.479,56.022c1.482,0.087,3.298-0.002,5.414-0.468c10.239-2.257,11.304-10.007,11.345-10.335   c0.048-0.395-0.022-0.795-0.202-1.15l-5.316-10.456c-0.308-0.604-0.9-1.01-1.573-1.082c-0.672-0.073-1.338,0.204-1.766,0.73   c-0.982,1.211-3.129,3.227-4.704,3.477c-1.173,0.193-1.736-2.54-1.74-2.559c-0.158-0.918-0.93-1.605-1.86-1.657   c-0.93-0.047-1.772,0.546-2.032,1.442c-1.588,5.498-7.572,12.676-10.049,15.483c-3.555-2.039-12.796-6.548-20.947-3.768   c-3.17,1.081-5.793,3.115-7.845,6.072c-2.379-5.192-6.493-16.28-3.662-26.02c0.308-1.061-0.302-2.17-1.362-2.479   c-1.064-0.31-2.17,0.302-2.479,1.362c-3.886,13.369,3.428,28.215,5.176,31.476c-0.264,0.636-0.515,1.292-0.745,1.981   c-3.233,9.665,8.755,33.067,10.133,35.704c0.356,0.683,1.053,1.074,1.774,1.074c0.312,0,0.628-0.073,0.924-0.228   c0.979-0.511,1.358-1.719,0.847-2.699c-3.523-6.747-12.169-25.754-9.885-32.583c1.754-5.242,4.581-8.563,8.405-9.872   c8.247-2.82,18.822,4.141,18.926,4.21c0.813,0.545,1.898,0.421,2.568-0.289c0.33-0.349,6.801-7.249,10.322-14.083   c1.052,1.053,2.45,1.653,4.158,1.381c1.944-0.308,3.783-1.589,5.118-2.771l3.725,7.325c-0.409,1.389-2.049,5.069-8.113,6.405   c-4.694,1.033-7.284-0.238-7.367-0.281c-0.773-0.419-1.729-0.283-2.356,0.333c-0.626,0.617-0.776,1.571-0.37,2.351l20.573,39.423   c0.512,0.979,1.718,1.359,2.699,0.848c0.979-0.511,1.358-1.719,0.848-2.698L62.479,56.022z"/><path fill="#000000" d="M59.854,71.29c-15.392-17.35-29.375-11.503-34.872-8.003c-0.308,0.108-0.591,0.292-0.818,0.543   c-0.729,0.803-0.701,1.734-0.344,2.395c0.634,2.914,3.485,14.586,10.992,27.623c0.551,0.958,1.775,1.285,2.731,0.735   c0.957-0.551,1.286-1.774,0.735-2.731c-6.581-11.429-9.479-21.98-10.36-25.667c5.063-2.909,16.292-6.499,28.943,7.76   c3.726,4.199,12.34,19.719,12.427,19.875c0.364,0.659,1.047,1.031,1.751,1.031c0.328,0,0.66-0.081,0.967-0.251   c0.967-0.535,1.316-1.752,0.78-2.719C72.426,91.227,63.871,75.816,59.854,71.29z"/><path fill="#000000" d="M64.565,22.626c1.104,0,2-0.896,2-2V7.645c0-1.104-0.896-2-2-2s-2,0.896-2,2v12.98   C62.565,21.73,63.461,22.626,64.565,22.626z"/><path fill="#000000" d="M45.716,27.247c0.391,0.391,0.902,0.586,1.414,0.586s1.023-0.195,1.414-0.586   c0.781-0.781,0.781-2.047,0-2.828l-9.18-9.179c-0.781-0.781-2.047-0.781-2.828,0s-0.781,2.047,0,2.828L45.716,27.247z"/><path fill="#000000" d="M91.563,15.865c-0.781-0.781-2.047-0.781-2.828,0l-9.179,9.179c-0.781,0.781-0.781,2.047,0,2.828   c0.391,0.391,0.902,0.586,1.414,0.586s1.023-0.195,1.414-0.586l9.179-9.179C92.345,17.913,92.345,16.646,91.563,15.865z"/></g><text x="0" y="115" fill="#000000" font-size="5px" font-weight="bold" font-family="'Helvetica Neue', Helvetica, Arial-Unicode, Arial, Sans-serif">Created by Andrew Shalansky</text><text x="0" y="120" fill="#000000" font-size="5px" font-weight="bold" font-family="'Helvetica Neue', Helvetica, Arial-Unicode, Arial, Sans-serif">from the Noun Project</text></svg>